# Blender 4.2.2 LTS
# www.blender.org
mtllib Button.mtl
o Cylinder.001
v -0.000000 0.567160 -1.255242
v -0.000000 0.137199 -1.692439
v 0.480360 0.567160 -1.159692
v 0.647668 0.137199 -1.563610
v 0.887590 0.567160 -0.887590
v 1.196735 0.137199 -1.196735
v 1.159692 0.567160 -0.480360
v 1.563610 0.137199 -0.647668
v 1.255242 0.567160 0.000000
v 1.692439 0.137199 0.000000
v 1.159692 0.567160 0.480360
v 1.563610 0.137199 0.647668
v 0.887590 0.567160 0.887590
v 1.196735 0.137199 1.196735
v 0.480360 0.567160 1.159692
v 0.647668 0.137199 1.563610
v -0.000000 0.567160 1.255242
v -0.000000 0.137199 1.692439
v -0.480360 0.567160 1.159692
v -0.647668 0.137199 1.563610
v -0.887590 0.567160 0.887590
v -1.196735 0.137199 1.196735
v -1.159692 0.567160 0.480360
v -1.563610 0.137199 0.647668
v -1.255242 0.567160 0.000000
v -1.692439 0.137199 0.000000
v -1.159692 0.567160 -0.480360
v -1.563610 0.137199 -0.647668
v -0.887590 0.567160 -0.887590
v -1.196735 0.137199 -1.196735
v -0.480360 0.567160 -1.159692
v -0.647668 0.137199 -1.563610
v -0.000000 0.567160 -1.692439
v 0.647668 0.567160 -1.563610
v 1.196735 0.567160 -1.196735
v 1.563610 0.567160 -0.647668
v 1.692439 0.567160 0.000000
v 1.563610 0.567160 0.647668
v 1.196735 0.567160 1.196735
v 0.647668 0.567160 1.563610
v -0.000000 0.567160 1.692439
v -0.647668 0.567160 1.563610
v -1.196735 0.567160 1.196735
v -1.563610 0.567160 0.647668
v -1.692439 0.567160 0.000000
v -1.563610 0.567160 -0.647668
v -1.196735 0.567160 -1.196735
v -0.647668 0.567160 -1.563610
v -0.000000 0.417160 -1.163033
v 0.445073 0.417160 -1.074502
v 0.822388 0.417160 -0.822388
v 1.074502 0.417160 -0.445073
v 1.163033 0.417160 0.000000
v 1.074502 0.417160 0.445073
v 0.822388 0.417160 0.822388
v 0.445073 0.417160 1.074502
v -0.000000 0.417160 1.163033
v -0.445073 0.417160 1.074502
v -0.822388 0.417160 0.822388
v -1.074502 0.417160 0.445073
v -1.163033 0.417160 0.000000
v -1.074502 0.417160 -0.445073
v -0.822388 0.417160 -0.822388
v -0.445073 0.417160 -1.074502
v -0.000000 0.417160 -1.255242
v 0.480360 0.417160 -1.159692
v 0.887590 0.417160 -0.887590
v 1.159692 0.417160 -0.480360
v 1.255242 0.417160 0.000000
v 1.159692 0.417160 0.480360
v 0.887590 0.417160 0.887590
v 0.480360 0.417160 1.159692
v -0.000000 0.417160 1.255242
v -0.480360 0.417160 1.159692
v -0.887590 0.417160 0.887590
v -1.159692 0.417160 0.480360
v -1.255242 0.417160 0.000000
v -1.159692 0.417160 -0.480360
v -0.887590 0.417160 -0.887590
v -0.480360 0.417160 -1.159692
v -0.000000 0.567160 -0.327465
v 0.125316 0.567160 -0.302538
v 0.231553 0.567160 -0.231553
v 0.302538 0.567160 -0.125316
v 0.327465 0.567160 0.000000
v 0.302538 0.567160 0.125316
v 0.231553 0.567160 0.231553
v 0.125316 0.567160 0.302538
v -0.000000 0.567160 0.327465
v -0.125316 0.567160 0.302538
v -0.231553 0.567160 0.231553
v -0.302538 0.567160 0.125316
v -0.327465 0.567160 0.000000
v -0.302538 0.567160 -0.125316
v -0.231553 0.567160 -0.231553
v -0.125316 0.567160 -0.302538
v -0.000000 0.567160 -1.163033
v 0.445073 0.567160 -1.074502
v 0.822388 0.567160 -0.822388
v 1.074502 0.567160 -0.445073
v 1.163033 0.567160 0.000000
v 1.074502 0.567160 0.445073
v 0.822388 0.567160 0.822388
v 0.445073 0.567160 1.074502
v -0.000000 0.567160 1.163033
v -0.445073 0.567160 1.074502
v -0.822388 0.567160 0.822388
v -1.074502 0.567160 0.445073
v -1.163033 0.567160 0.000000
v -1.074502 0.567160 -0.445073
v -0.822388 0.567160 -0.822388
v -0.445073 0.567160 -1.074502
v -0.000000 0.417160 -0.280356
v 0.107288 0.417160 -0.259015
v 0.198242 0.417160 -0.198242
v 0.259015 0.417160 -0.107288
v 0.280356 0.417160 0.000000
v 0.259015 0.417160 0.107288
v 0.198242 0.417160 0.198242
v 0.107288 0.417160 0.259015
v -0.000000 0.417160 0.280356
v -0.107288 0.417160 0.259015
v -0.198242 0.417160 0.198242
v -0.259015 0.417160 0.107288
v -0.280356 0.417160 0.000000
v -0.259015 0.417160 -0.107288
v -0.198242 0.417160 -0.198242
v -0.107288 0.417160 -0.259015
v -0.000000 0.417160 -0.327465
v 0.125316 0.417160 -0.302538
v 0.231553 0.417160 -0.231553
v 0.302538 0.417160 -0.125316
v 0.327465 0.417160 0.000000
v 0.302538 0.417160 0.125316
v 0.231553 0.417160 0.231553
v 0.125316 0.417160 0.302538
v -0.000000 0.417160 0.327465
v -0.125316 0.417160 0.302538
v -0.231553 0.417160 0.231553
v -0.302538 0.417160 0.125316
v -0.327465 0.417160 0.000000
v -0.302538 0.417160 -0.125316
v -0.231553 0.417160 -0.231553
v -0.125316 0.417160 -0.302538
v -0.000000 0.567160 -0.280356
v 0.107288 0.567160 -0.259015
v 0.198242 0.567160 -0.198242
v 0.259015 0.567160 -0.107288
v 0.280356 0.567160 0.000000
v 0.259015 0.567160 0.107288
v 0.198242 0.567160 0.198242
v 0.107288 0.567160 0.259015
v -0.000000 0.567160 0.280356
v -0.107288 0.567160 0.259015
v -0.198242 0.567160 0.198242
v -0.259015 0.567160 0.107288
v -0.280356 0.567160 0.000000
v -0.259015 0.567160 -0.107288
v -0.198242 0.567160 -0.198242
v -0.107288 0.567160 -0.259015
vn -0.0000 -0.0000 -1.0000
vn 0.3827 -0.0000 -0.9239
vn 0.7071 -0.0000 -0.7071
vn 0.9239 -0.0000 -0.3827
vn 1.0000 -0.0000 -0.0000
vn 0.9239 -0.0000 0.3827
vn 0.7071 -0.0000 0.7071
vn 0.3827 -0.0000 0.9239
vn -0.0000 -0.0000 1.0000
vn -0.3827 -0.0000 0.9239
vn -0.7071 -0.0000 0.7071
vn -0.9239 -0.0000 0.3827
vn -1.0000 -0.0000 -0.0000
vn -0.9239 -0.0000 -0.3827
vn -0.7071 -0.0000 -0.7071
vn -0.0000 -1.0000 -0.0000
vn -0.3827 -0.0000 -0.9239
vn -0.0000 1.0000 -0.0000
vt 0.000088 0.125066
vt 0.000088 0.187555
vt 0.040775 0.187555
vt 0.040775 0.125066
vt 0.000088 0.250044
vt 0.040775 0.250044
vt 0.000088 0.312533
vt 0.040775 0.312533
vt 0.000088 0.375022
vt 0.040775 0.375022
vt 0.000088 0.437511
vt 0.040775 0.437511
vt 0.000088 0.500000
vt 0.040775 0.500000
vt 0.000088 0.562489
vt 0.040775 0.562489
vt 0.000088 0.624978
vt 0.040775 0.624978
vt 0.000088 0.687467
vt 0.040775 0.687467
vt 0.000088 0.749956
vt 0.040775 0.749956
vt 0.000088 0.812445
vt 0.040775 0.812445
vt 0.000088 0.874934
vt 0.040775 0.874934
vt 0.000088 0.937423
vt 0.040775 0.937423
vt 0.000088 0.999912
vt 0.040775 0.999912
vt 0.085933 0.702561
vt 0.109847 0.760293
vt 0.154033 0.804480
vt 0.211766 0.828393
vt 0.274255 0.828393
vt 0.331987 0.804480
vt 0.376174 0.760293
vt 0.400087 0.702561
vt 0.400087 0.640072
vt 0.376174 0.582340
vt 0.331987 0.538153
vt 0.274255 0.514239
vt 0.211766 0.514239
vt 0.154033 0.538153
vt 0.109847 0.582339
vt 0.085933 0.640072
vt 0.000088 0.000088
vt 0.000088 0.062577
vt 0.040775 0.062577
vt 0.040775 0.000088
vt 0.127155 0.225190
vt 0.142472 0.228140
vt 0.160804 0.184625
vt 0.147588 0.175965
vt 0.375937 0.177444
vt 0.415656 0.152286
vt 0.365237 0.100403
vt 0.338031 0.139222
vt 0.395833 0.227255
vt 0.441679 0.218653
vt 0.395186 0.280377
vt 0.441679 0.289999
vt 0.374753 0.329603
vt 0.413573 0.356779
vt 0.336558 0.367529
vt 0.361746 0.407244
vt 0.286727 0.387463
vt 0.295347 0.433337
vt 0.233562 0.386815
vt 0.223923 0.433337
vt 0.184310 0.366345
vt 0.157104 0.405165
vt 0.146404 0.328123
vt 0.106685 0.353281
vt 0.126508 0.278312
vt 0.080662 0.286915
vt 0.080662 0.215569
vt 0.108768 0.148789
vt 0.185783 0.138038
vt 0.160595 0.098323
vt 0.235614 0.118105
vt 0.226994 0.072230
vt 0.288779 0.118753
vt 0.298418 0.072230
vt 0.150428 0.273557
vt 0.164132 0.270756
vt 0.164697 0.232519
vt 0.151165 0.229888
vt 0.361537 0.320942
vt 0.327678 0.354530
vt 0.194663 0.151038
vt 0.283543 0.371882
vt 0.238798 0.133685
vt 0.236516 0.371486
vt 0.285825 0.134081
vt 0.192977 0.353129
vt 0.329364 0.152439
vt 0.362938 0.186318
vt 0.159403 0.319249
vt 0.380260 0.230434
vt 0.142081 0.275133
vt 0.379869 0.277428
vt 0.355076 0.191482
vt 0.324380 0.159898
vt 0.371913 0.232011
vt 0.371176 0.275679
vt 0.354080 0.315961
vt 0.322511 0.346666
vt 0.281964 0.363531
vt 0.238267 0.362788
vt 0.197961 0.345670
vt 0.167265 0.314086
vt 0.168261 0.189606
vt 0.199830 0.158901
vt 0.240377 0.142037
vt 0.284074 0.142779
vt 0.255328 0.280806
vt 0.257398 0.270147
vt 0.251004 0.267333
vt 0.245026 0.276430
vt 0.357644 0.273048
vt 0.342475 0.308291
vt 0.179866 0.197276
vt 0.314750 0.335210
vt 0.207591 0.170358
vt 0.279159 0.349824
vt 0.243182 0.155744
vt 0.240903 0.349249
vt 0.281438 0.156319
vt 0.205632 0.334062
vt 0.316709 0.171505
vt 0.343623 0.199241
vt 0.178718 0.306327
vt 0.358209 0.234811
vt 0.285180 0.237125
vt 0.277315 0.229138
vt 0.289408 0.247520
vt 0.289242 0.258692
vt 0.284921 0.268946
vt 0.276991 0.276812
vt 0.266552 0.281028
vt 0.237161 0.268443
vt 0.232933 0.258048
vt 0.233099 0.246876
vt 0.237420 0.236622
vt 0.245350 0.228755
vt 0.255789 0.224539
vt 0.267013 0.224761
vt 0.258385 0.237771
vt 0.259563 0.244219
vt 0.263000 0.244443
vt 0.264366 0.237934
vt 0.271337 0.238234
vt 0.276186 0.243266
vt 0.264943 0.235420
vt 0.246155 0.262301
vt 0.278747 0.249745
vt 0.243594 0.255822
vt 0.278617 0.256688
vt 0.243724 0.248879
vt 0.275836 0.262963
vt 0.246505 0.242604
vt 0.270932 0.267860
vt 0.251408 0.237707
vt 0.264383 0.270344
vt 0.257958 0.235223
vt 0.274016 0.244651
vt 0.269852 0.240342
vt 0.276223 0.250194
vt 0.276135 0.256140
vt 0.273830 0.261569
vt 0.269504 0.265616
vt 0.263956 0.267796
vt 0.257975 0.267633
vt 0.252489 0.265225
vt 0.248325 0.260916
vt 0.246118 0.255373
vt 0.246205 0.249427
vt 0.248511 0.243998
vt 0.252837 0.239951
vt 0.266195 0.245816
vt 0.256378 0.245334
vt 0.253929 0.247601
vt 0.252602 0.250671
vt 0.252503 0.254059
vt 0.253790 0.257224
vt 0.256146 0.259751
vt 0.259341 0.261124
vt 0.262778 0.261348
vt 0.265962 0.260233
vt 0.268412 0.257966
vt 0.269738 0.254896
vt 0.269838 0.251509
vt 0.268551 0.248344
s 1
f 33/1/1 34/2/2 4/3/2 2/4/1
f 34/2/2 35/5/3 6/6/3 4/3/2
f 35/5/3 36/7/4 8/8/4 6/6/3
f 36/7/4 37/9/5 10/10/5 8/8/4
f 37/9/5 38/11/6 12/12/6 10/10/5
f 38/11/6 39/13/7 14/14/7 12/12/6
f 39/13/7 40/15/8 16/16/8 14/14/7
f 40/15/8 41/17/9 18/18/9 16/16/8
f 41/17/9 42/19/10 20/20/10 18/18/9
f 42/19/10 43/21/11 22/22/11 20/20/10
f 43/21/11 44/23/12 24/24/12 22/22/11
f 44/23/12 45/25/13 26/26/13 24/24/12
f 45/25/13 46/27/14 28/28/14 26/26/13
f 46/27/14 47/29/15 30/30/15 28/28/14
f 4/31/16 6/32/16 8/33/16 10/34/16 12/35/16 14/36/16 16/37/16 18/38/16 20/39/16 22/40/16 24/41/16 26/42/16 28/43/16 30/44/16 32/45/16 2/46/16
f 47/47/15 48/48/17 32/49/17 30/50/15
f 48/48/17 33/1/1 2/4/1 32/49/17
f 23/51/4 76/52/4 77/53/5 25/54/5
f 3/55/18 34/56/18 33/57/18 1/58/18
f 5/59/18 35/60/18 34/56/18 3/55/18
f 7/61/18 36/62/18 35/60/18 5/59/18
f 9/63/18 37/64/18 36/62/18 7/61/18
f 11/65/18 38/66/18 37/64/18 9/63/18
f 13/67/18 39/68/18 38/66/18 11/65/18
f 15/69/18 40/70/18 39/68/18 13/67/18
f 17/71/18 41/72/18 40/70/18 15/69/18
f 19/73/18 42/74/18 41/72/18 17/71/18
f 21/75/18 43/76/18 42/74/18 19/73/18
f 23/51/18 44/77/18 43/76/18 21/75/18
f 25/54/18 45/78/18 44/77/18 23/51/18
f 27/79/18 46/80/18 45/78/18 25/54/18
f 29/81/18 47/82/18 46/80/18 27/79/18
f 31/83/18 48/84/18 47/82/18 29/81/18
f 1/58/18 33/57/18 48/84/18 31/83/18
f 59/85/11 107/86/11 108/87/12 60/88/12
f 9/63/13 69/89/13 70/90/14 11/65/14
f 25/54/5 77/53/5 78/91/6 27/79/6
f 11/65/14 70/90/14 71/92/15 13/67/15
f 27/79/6 78/91/6 79/93/7 29/81/7
f 13/67/15 71/92/15 72/94/17 15/69/17
f 29/81/7 79/93/7 80/95/8 31/83/8
f 15/69/17 72/94/17 73/96/1 17/71/1
f 1/58/9 65/97/9 66/98/10 3/55/10
f 31/83/8 80/95/8 65/97/9 1/58/9
f 17/71/1 73/96/1 74/99/2 19/73/2
f 3/55/10 66/98/10 67/100/11 5/59/11
f 19/73/2 74/99/2 75/101/3 21/75/3
f 5/59/11 67/100/11 68/102/12 7/61/12
f 21/75/3 75/101/3 76/52/4 23/51/4
f 7/61/12 68/102/12 69/89/13 9/63/13
f 50/103/18 66/98/18 65/97/18 49/104/18
f 51/105/18 67/100/18 66/98/18 50/103/18
f 52/106/18 68/102/18 67/100/18 51/105/18
f 53/107/18 69/89/18 68/102/18 52/106/18
f 54/108/18 70/90/18 69/89/18 53/107/18
f 55/109/18 71/92/18 70/90/18 54/108/18
f 56/110/18 72/94/18 71/92/18 55/109/18
f 57/111/18 73/96/18 72/94/18 56/110/18
f 58/112/18 74/99/18 73/96/18 57/111/18
f 59/85/18 75/101/18 74/99/18 58/112/18
f 60/88/18 76/52/18 75/101/18 59/85/18
f 61/113/18 77/53/18 76/52/18 60/88/18
f 62/114/18 78/91/18 77/53/18 61/113/18
f 63/115/18 79/93/18 78/91/18 62/114/18
f 64/116/18 80/95/18 79/93/18 63/115/18
f 49/104/18 65/97/18 80/95/18 64/116/18
f 88/117/17 136/118/17 137/119/1 89/120/1
f 52/106/4 100/121/4 101/122/5 53/107/5
f 60/88/12 108/87/12 109/123/13 61/113/13
f 53/107/5 101/122/5 102/124/6 54/108/6
f 61/113/13 109/123/13 110/125/14 62/114/14
f 54/108/6 102/124/6 103/126/7 55/109/7
f 62/114/14 110/125/14 111/127/15 63/115/15
f 55/109/7 103/126/7 104/128/8 56/110/8
f 63/115/15 111/127/15 112/129/17 64/116/17
f 56/110/8 104/128/8 105/130/9 57/111/9
f 49/104/1 97/131/1 98/132/2 50/103/2
f 64/116/17 112/129/17 97/131/1 49/104/1
f 57/111/9 105/130/9 106/133/10 58/112/10
f 50/103/2 98/132/2 99/134/3 51/105/3
f 58/112/10 106/133/10 107/86/11 59/85/11
f 51/105/3 99/134/3 100/121/4 52/106/4
f 82/135/18 98/132/18 97/131/18 81/136/18
f 83/137/18 99/134/18 98/132/18 82/135/18
f 84/138/18 100/121/18 99/134/18 83/137/18
f 85/139/18 101/122/18 100/121/18 84/138/18
f 86/140/18 102/124/18 101/122/18 85/139/18
f 87/141/18 103/126/18 102/124/18 86/140/18
f 88/117/18 104/128/18 103/126/18 87/141/18
f 89/120/18 105/130/18 104/128/18 88/117/18
f 90/142/18 106/133/18 105/130/18 89/120/18
f 91/143/18 107/86/18 106/133/18 90/142/18
f 92/144/18 108/87/18 107/86/18 91/143/18
f 93/145/18 109/123/18 108/87/18 92/144/18
f 94/146/18 110/125/18 109/123/18 93/145/18
f 95/147/18 111/127/18 110/125/18 94/146/18
f 96/148/18 112/129/18 111/127/18 95/147/18
f 81/136/18 97/131/18 112/129/18 96/148/18
f 127/149/15 159/150/15 160/151/17 128/152/17
f 81/136/9 129/153/9 130/154/10 82/135/10
f 96/148/8 144/155/8 129/153/9 81/136/9
f 89/120/1 137/119/1 138/156/2 90/142/2
f 82/135/10 130/154/10 131/157/11 83/137/11
f 90/142/2 138/156/2 139/158/3 91/143/3
f 83/137/11 131/157/11 132/159/12 84/138/12
f 91/143/3 139/158/3 140/160/4 92/144/4
f 84/138/12 132/159/12 133/161/13 85/139/13
f 92/144/4 140/160/4 141/162/5 93/145/5
f 85/139/13 133/161/13 134/163/14 86/140/14
f 93/145/5 141/162/5 142/164/6 94/146/6
f 86/140/14 134/163/14 135/165/15 87/141/15
f 94/146/6 142/164/6 143/166/7 95/147/7
f 87/141/15 135/165/15 136/118/17 88/117/17
f 95/147/7 143/166/7 144/155/8 96/148/8
f 114/167/18 130/154/18 129/153/18 113/168/18
f 115/169/18 131/157/18 130/154/18 114/167/18
f 116/170/18 132/159/18 131/157/18 115/169/18
f 117/171/18 133/161/18 132/159/18 116/170/18
f 118/172/18 134/163/18 133/161/18 117/171/18
f 119/173/18 135/165/18 134/163/18 118/172/18
f 120/174/18 136/118/18 135/165/18 119/173/18
f 121/175/18 137/119/18 136/118/18 120/174/18
f 122/176/18 138/156/18 137/119/18 121/175/18
f 123/177/18 139/158/18 138/156/18 122/176/18
f 124/178/18 140/160/18 139/158/18 123/177/18
f 125/179/18 141/162/18 140/160/18 124/178/18
f 126/180/18 142/164/18 141/162/18 125/179/18
f 127/149/18 143/166/18 142/164/18 126/180/18
f 128/152/18 144/155/18 143/166/18 127/149/18
f 113/168/18 129/153/18 144/155/18 128/152/18
f 145/181/18 160/151/18 159/150/18 158/182/18 157/183/18 156/184/18 155/185/18 154/186/18 153/187/18 152/188/18 151/189/18 150/190/18 149/191/18 148/192/18 147/193/18 146/194/18
f 120/174/8 152/188/8 153/187/9 121/175/9
f 113/168/1 145/181/1 146/194/2 114/167/2
f 128/152/17 160/151/17 145/181/1 113/168/1
f 121/175/9 153/187/9 154/186/10 122/176/10
f 114/167/2 146/194/2 147/193/3 115/169/3
f 122/176/10 154/186/10 155/185/11 123/177/11
f 115/169/3 147/193/3 148/192/4 116/170/4
f 123/177/11 155/185/11 156/184/12 124/178/12
f 116/170/4 148/192/4 149/191/5 117/171/5
f 124/178/12 156/184/12 157/183/13 125/179/13
f 117/171/5 149/191/5 150/190/6 118/172/6
f 125/179/13 157/183/13 158/182/14 126/180/14
f 118/172/6 150/190/6 151/189/7 119/173/7
f 126/180/14 158/182/14 159/150/15 127/149/15
f 119/173/7 151/189/7 152/188/8 120/174/8
