# Blender 4.2.2 LTS
# www.blender.org
mtllib Pedal.mtl
o Cylinder
v -0.000000 -0.185334 -2.381348
v -0.000000 0.205846 -1.732132
v 0.911303 -0.185334 -2.200079
v 0.662858 0.205846 -1.600281
v 1.683867 -0.185334 -1.683867
v 1.224802 0.205846 -1.224802
v 2.200079 -0.185334 -0.911303
v 1.600281 0.205846 -0.662858
v 2.381348 -0.185334 0.000000
v 1.732132 0.205846 0.000000
v 2.200079 -0.185334 0.911302
v 1.600281 0.205846 0.662858
v 1.683867 -0.185334 1.683867
v 1.224802 0.205846 1.224802
v 0.911303 -0.185334 2.200079
v 0.662858 0.205846 1.600281
v -0.000000 -0.185334 2.381348
v -0.000000 0.205846 1.732132
v -0.911303 -0.185334 2.200079
v -0.662858 0.205846 1.600281
v -1.683867 -0.185334 1.683867
v -1.224802 0.205846 1.224802
v -2.200079 -0.185334 0.911302
v -1.600281 0.205846 0.662858
v -2.381348 -0.185334 0.000000
v -1.732132 0.205846 0.000000
v -2.200079 -0.185334 -0.911303
v -1.600281 0.205846 -0.662858
v -1.683867 -0.185334 -1.683867
v -1.224802 0.205846 -1.224802
v -0.911303 -0.185334 -2.200079
v -0.662858 0.205846 -1.600281
v -0.017961 -0.185345 -2.565831
v -0.000000 0.312093 -2.197644
v 1.553969 0.312093 -1.553969
v 1.827016 -0.185345 -1.801616
v 2.371598 -0.184503 -0.982348
v 2.030359 0.312093 -0.841002
v 2.565831 -0.185345 -0.017961
v 2.197644 0.312093 0.000000
v 1.553969 0.312093 1.553969
v 1.801616 -0.185345 1.827016
v 0.982348 -0.184503 2.371598
v 0.841002 0.312093 2.030359
v 0.017961 -0.185345 2.565831
v -0.000000 0.312093 2.197644
v -1.553969 0.312093 1.553969
v -1.827016 -0.185345 1.801616
v -2.371598 -0.184503 0.982348
v -2.030359 0.312093 0.841002
v -2.565831 -0.185345 0.017961
v -2.197644 0.312093 0.000000
v -1.553969 0.312093 -1.553969
v -1.801616 -0.185345 -1.827016
v -0.982348 -0.184503 -2.371598
v -0.841002 0.312093 -2.030359
v 0.803508 0.205846 -1.939839
v -0.000000 0.205846 -2.099667
v 1.484688 0.205846 -1.484688
v 2.099667 0.205846 0.000000
v 1.939839 0.205846 0.803508
v 1.484688 0.205846 1.484688
v -0.000000 0.205846 2.099667
v -0.803508 0.205846 1.939839
v -1.484688 0.205846 1.484688
v -2.099667 0.205846 0.000000
v -1.939839 0.205846 -0.803508
v -1.484688 0.205846 -1.484688
v 0.662858 -0.040393 -1.600281
v -0.000000 -0.040393 -1.732132
v 1.224802 -0.040393 -1.224802
v 1.600281 -0.040393 -0.662858
v 1.732132 -0.040393 0.000000
v 1.600281 -0.040393 0.662858
v 1.224802 -0.040393 1.224802
v 0.662858 -0.040393 1.600281
v -0.000000 -0.040393 1.732132
v -0.662858 -0.040393 1.600281
v -1.224802 -0.040393 1.224802
v -1.600281 -0.040393 0.662858
v -1.732132 -0.040393 0.000000
v -1.600281 -0.040393 -0.662858
v -1.224802 -0.040393 -1.224802
v -0.662858 -0.040393 -1.600281
v 1.600281 0.312093 -0.662858
v 1.224802 0.312093 -1.224802
v 1.732132 0.312093 0.000000
v 0.662858 0.312093 1.600281
v 1.224802 0.312093 1.224802
v -0.000000 0.312093 1.732132
v -1.600281 0.312093 0.662858
v -1.224802 0.312093 1.224802
v -1.732132 0.312093 0.000000
v -0.662858 0.312093 -1.600281
v -1.224802 0.312093 -1.224802
v -0.000000 0.312093 -1.732132
vn 0.1594 0.5769 -0.8011
vn 0.3105 0.5843 -0.7497
vn 0.4538 0.5769 -0.6792
vn -0.0009 -1.0000 -0.0021
vn 0.8011 0.5769 0.1594
vn 0.7497 0.5843 0.3105
vn 0.6792 0.5769 0.4538
vn -0.7453 0.0206 0.6664
vn -0.1594 0.5769 0.8011
vn -0.3105 0.5843 0.7497
vn -0.4538 0.5769 0.6792
vn 0.0557 0.0206 0.9982
vn -0.0021 -1.0000 0.0009
vn -0.8011 0.5769 -0.1594
vn -0.7497 0.5843 -0.3105
vn -0.6792 0.5769 -0.4538
vn -0.9239 -0.0000 0.3827
vn -0.7071 -0.0000 0.7071
vn 0.0009 -1.0000 0.0021
vn -0.0000 -1.0000 -0.0000
vn 0.6716 0.5903 -0.4478
vn 0.7407 0.5977 -0.3068
vn 0.7915 0.5903 -0.1582
vn 0.4478 0.5903 0.6716
vn 0.3068 0.5977 0.7407
vn 0.1582 0.5903 0.7915
vn -0.6716 0.5903 0.4478
vn -0.7407 0.5977 0.3068
vn -0.7915 0.5903 0.1582
vn -0.4478 0.5903 -0.6716
vn -0.3068 0.5977 -0.7407
vn -0.1582 0.5903 -0.7915
vn -0.6664 0.0206 -0.7453
vn -0.0557 0.0206 -0.9982
vn 0.0021 -1.0000 -0.0009
vn 0.6664 0.0206 0.7453
vn -0.9982 0.0206 0.0557
vn 0.9982 0.0206 -0.0557
vn 0.7453 0.0206 -0.6664
vn -0.0000 1.0000 -0.0000
vn 1.0000 -0.0000 -0.0000
vn 0.3827 -0.0000 0.9239
vn 0.1951 -0.0000 0.9808
vn 0.7071 -0.0000 -0.7071
vn -0.3827 -0.0000 -0.9239
vn -0.1951 -0.0000 -0.9808
vn 0.9239 -0.0000 -0.3827
vn -1.0000 -0.0000 -0.0000
vn 0.9808 -0.0000 -0.1951
vn -0.9239 -0.0000 -0.3827
vn 0.9239 -0.0000 0.3827
vn 0.9808 -0.0000 0.1951
vn -0.7071 -0.0000 -0.7071
vn 0.7071 -0.0000 0.7071
vn -0.0000 -0.0000 -1.0000
vn -0.3827 -0.0000 0.9239
vn -0.0000 -0.0000 1.0000
vn 0.3827 -0.0000 -0.9239
vn -0.8315 -0.0000 0.5556
vn 0.8315 -0.0000 -0.5556
vn -0.9808 -0.0000 0.1951
vn -0.5556 -0.0000 -0.8315
vn 0.5556 -0.0000 0.8315
vt 0.750822 0.611764
vt 0.732692 0.590348
vt 0.765125 0.562639
vt 0.778207 0.578805
vt 0.796854 0.534486
vt 0.816583 0.553713
vt 0.439999 0.101863
vt 0.488662 0.025600
vt 0.493318 0.043167
vt 0.465124 0.105601
vt 0.902550 0.563197
vt 0.921655 0.549551
vt 0.944647 0.578313
vt 0.929800 0.591154
vt 0.971061 0.603503
vt 0.956887 0.621313
vt 0.541133 0.023208
vt 0.538047 0.036314
vt 0.958383 0.711925
vt 0.975127 0.732206
vt 0.944905 0.758533
vt 0.931911 0.743650
vt 0.916792 0.785305
vt 0.898455 0.768562
vt 0.564067 0.785772
vt 0.617895 0.805188
vt 0.607771 0.821774
vt 0.563761 0.801444
vt 0.622984 0.548439
vt 0.646435 0.637844
vt 0.621310 0.634107
vt 0.612861 0.565025
vt 0.804435 0.767327
vt 0.783727 0.785732
vt 0.755605 0.754378
vt 0.771251 0.741081
vt 0.727063 0.723729
vt 0.745571 0.703799
vt 0.479624 0.873780
vt 0.479609 0.967616
vt 0.444650 0.967616
vt 0.444650 0.871665
vt 0.649723 0.365010
vt 0.601060 0.441273
vt 0.596404 0.423706
vt 0.624598 0.361272
vt 0.862222 0.547112
vt 0.971257 0.665589
vt 0.851273 0.778891
vt 0.737971 0.658907
vt 0.588027 0.953289
vt 0.543298 0.960142
vt 0.550731 0.882100
vt 0.616221 0.890856
vt 0.551675 0.430559
vt 0.559108 0.352516
vt 0.572138 0.271861
vt 0.616148 0.292191
vt 0.593117 0.696540
vt 0.548388 0.703393
vt 0.555821 0.625351
vt 0.568851 0.544695
vt 0.530614 0.114357
vt 0.517584 0.195012
vt 0.473574 0.174682
vt 0.592683 0.970856
vt 0.540212 0.973248
vt 0.569157 0.529024
vt 0.641346 0.894593
vt 0.626272 0.275605
vt 0.597773 0.714107
vt 0.545302 0.716500
vt 0.463450 0.191268
vt 0.572445 0.256189
vt 0.517278 0.210684
vt 0.548589 0.443665
vt 0.723209 0.572745
vt 0.752329 0.547975
vt 0.780838 0.522673
vt 0.568495 0.232961
vt 0.574935 0.218156
vt 0.936450 0.541926
vt 0.957112 0.566882
vt 0.979931 0.589556
vt 0.584844 0.016248
vt 0.586856 0.028884
vt 0.984042 0.748530
vt 0.957144 0.771830
vt 0.931642 0.795688
vt 0.601721 0.122676
vt 0.589572 0.219943
vt 0.586925 0.121636
vt 0.766578 0.795511
vt 0.741436 0.767357
vt 0.715784 0.739819
vt 0.504878 0.450625
vt 0.502866 0.437989
vt 0.488001 0.344197
vt 0.500151 0.246930
vt 0.514787 0.248717
vt 0.502797 0.345237
vt 0.764797 0.445779
vt 0.723193 0.404174
vt 0.700677 0.349816
vt 0.700677 0.290978
vt 0.723193 0.236620
vt 0.764797 0.195015
vt 0.819156 0.172499
vt 0.877993 0.172499
vt 0.932352 0.195015
vt 0.973956 0.236619
vt 0.996472 0.290978
vt 0.996472 0.349816
vt 0.973956 0.404174
vt 0.932352 0.445779
vt 0.877993 0.468295
vt 0.819156 0.468295
vt 0.484714 0.617031
vt 0.484699 0.710867
vt 0.449740 0.710867
vt 0.449740 0.614916
vt 0.491773 0.776513
vt 0.455662 0.772324
vt 0.496863 0.519765
vt 0.460752 0.515576
vt 0.945419 0.534460
vt 0.965910 0.559077
vt 0.756307 0.804666
vt 0.731179 0.776477
vt 0.987819 0.581809
vt 0.706097 0.748661
vt 0.487986 0.438032
vt 0.453027 0.438032
vt 0.453027 0.342082
vt 0.601736 0.028840
vt 0.636695 0.028840
vt 0.636695 0.124791
vt 0.464039 0.242741
vt 0.714189 0.562123
vt 0.743345 0.537367
vt 0.625683 0.224132
vt 0.992479 0.758321
vt 0.965604 0.781477
vt 0.772121 0.512649
vt 0.939829 0.804666
vt 0.494489 0.967572
vt 0.494420 0.874821
vt 0.506410 0.778301
vt 0.499579 0.710823
vt 0.499510 0.618072
vt 0.511500 0.521552
vt 0.521227 0.233911
vt 0.496501 0.980208
vt 0.501591 0.723459
vt 0.512850 0.763495
vt 0.517940 0.506746
s 1
f 1/1/1 58/2/1 57/3/2 3/4/2
f 3/4/2 57/3/2 59/5/3 5/6/3
f 31/7/4 29/8/4 54/9/4 55/10/4
f 9/11/5 60/12/5 61/13/6 11/14/6
f 11/14/6 61/13/6 62/15/7 13/16/7
f 29/8/8 68/17/8 53/18/8 54/9/8
f 17/19/9 63/20/9 64/21/10 19/22/10
f 19/22/10 64/21/10 65/23/11 21/24/11
f 60/25/12 9/26/12 39/27/12 40/28/12
f 25/29/13 23/30/13 49/31/13 51/32/13
f 25/33/14 66/34/14 67/35/15 27/36/15
f 27/36/15 67/35/15 68/37/16 29/38/16
f 8/39/17 6/40/18 71/41/18 72/42/17
f 15/43/19 13/44/19 42/45/19 43/46/19
f 1/1/20 3/4/20 5/6/20 7/47/20 9/11/20 11/14/20 13/16/20 15/48/20 17/19/20 19/22/20 21/24/20 23/49/20 25/33/20 27/36/20 29/38/20 31/50/20
f 36/51/21 35/52/21 38/53/22 37/54/22
f 37/54/22 38/53/22 40/28/23 39/27/23
f 42/45/24 41/55/24 44/56/25 43/46/25
f 43/46/25 44/56/25 46/57/26 45/58/26
f 48/59/27 47/60/27 50/61/28 49/31/28
f 49/31/28 50/61/28 52/62/29 51/32/29
f 54/9/30 53/18/30 56/63/31 55/10/31
f 55/10/31 56/63/31 34/64/32 33/65/32
f 5/66/33 59/67/33 35/52/33 36/51/33
f 66/68/34 25/29/34 51/32/34 52/62/34
f 7/69/35 5/66/35 36/51/35 37/54/35
f 17/70/19 15/43/19 43/46/19 45/58/19
f 21/71/36 65/72/36 47/60/36 48/59/36
f 23/30/13 21/71/13 48/59/13 49/31/13
f 1/73/4 31/7/4 55/10/4 33/65/4
f 63/74/37 17/70/37 45/58/37 46/57/37
f 58/75/38 1/73/38 33/65/38 34/64/38
f 9/26/35 7/69/35 37/54/35 39/27/35
f 13/44/39 62/76/39 41/55/39 42/45/39
f 2/77/40 4/78/40 57/3/40 58/2/40
f 4/78/40 6/79/40 59/5/40 57/3/40
f 2/80/41 58/75/41 34/64/41 96/81/41
f 10/82/40 12/83/40 61/13/40 60/12/40
f 12/83/40 14/84/40 62/15/40 61/13/40
f 68/17/18 30/85/18 95/86/18 53/18/18
f 18/87/40 20/88/40 64/21/40 63/20/40
f 20/88/40 22/89/40 65/23/40 64/21/40
f 32/90/42 2/91/43 96/81/43 94/92/42
f 26/93/40 28/94/40 67/35/40 66/34/40
f 28/94/40 30/95/40 68/37/40 67/35/40
f 62/76/44 14/96/44 89/97/44 41/55/44
f 16/98/45 18/99/46 90/100/46 88/101/45
f 69/102/40 70/103/40 84/104/40 83/105/40 82/106/40 81/107/40 80/108/40 79/109/40 78/110/40 77/111/40 76/112/40 75/113/40 74/114/40 73/115/40 72/116/40 71/117/40
f 24/118/47 22/119/44 79/120/44 80/121/47
f 10/122/48 8/39/17 72/42/17 73/123/48
f 26/124/49 24/118/47 80/121/47 81/125/49
f 12/83/50 10/82/48 73/126/48 74/127/50
f 28/94/51 26/93/52 81/128/52 82/129/51
f 14/84/53 12/83/50 74/127/50 75/130/53
f 30/95/54 28/94/51 82/129/51 83/131/54
f 16/98/45 14/132/53 75/133/53 76/134/45
f 32/90/42 30/135/54 83/136/54 84/137/42
f 18/99/55 16/98/45 76/134/45 77/138/55
f 4/78/56 2/77/57 70/139/57 69/140/56
f 2/91/57 32/90/42 84/137/42 70/141/57
f 20/88/58 18/87/55 77/142/55 78/143/58
f 6/79/18 4/78/56 69/140/56 71/144/18
f 22/89/44 20/88/58 78/143/58 79/145/44
f 86/146/40 85/147/40 38/53/40 35/52/40
f 85/147/40 87/148/40 40/28/40 38/53/40
f 89/97/40 88/101/40 44/56/40 41/55/40
f 88/101/40 90/100/40 46/57/40 44/56/40
f 92/149/40 91/150/40 50/61/40 47/60/40
f 91/150/40 93/151/40 52/62/40 50/61/40
f 95/86/40 94/92/40 56/63/40 53/18/40
f 94/92/40 96/81/40 34/64/40 56/63/40
f 18/152/48 63/74/48 46/57/48 90/100/48
f 6/40/59 8/39/17 85/147/17 86/146/59
f 22/119/60 24/118/47 91/150/47 92/149/60
f 8/39/17 10/122/61 87/148/61 85/147/17
f 59/67/53 6/153/53 86/146/53 35/52/53
f 24/118/47 26/124/49 93/151/49 91/150/47
f 65/72/54 22/154/54 92/149/54 47/60/54
f 10/155/57 60/25/57 40/28/57 87/148/57
f 26/156/55 66/68/55 52/62/55 93/151/55
f 14/132/62 16/98/45 88/101/45 89/97/62
f 30/135/63 32/90/42 94/92/42 95/86/63
